#!OML:ASF H:\Pregnant\Project 1\Capture day 1\Session 1\femalepreg.ASF
:FULLY-SPECIFIED
:DEGREES
1488
root 10.0861 15.7401 5.87244 20.2456 -14.3417 -5.35879
lowerback -23.5943 0.946965 2.79429
upperback -7.77814 0.393855 1.68199
thorax 4.60091 0.152555 0.323094
lowerneck -23.6819 5.09064 6.85006
upperneck 26.0904 4.63781 -0.0689606
head 12.8361 2.73296 -0.335597
rclavicle -4.52421e-014 -1.93318e-014
rhumerus -32.8341 6.7245 -85.6014
rradius 43.512
rwrist -5.54443
rhand -14.124 -15.4558
rfingers 7.12502
rthumb 12.0095 -45.0912
lclavicle -4.52421e-014 -1.93318e-014
lhumerus -32.7177 -20.4027 90.2725
lradius 46.9953
lwrist 43.9066
lhand -30.9418 -10.6569
lfingers 7.12502
lthumb -4.22689 19.2809
rfemur -38.8402 16.8436 20.4942
rtibia 36.3301
rfoot -13.0555 -3.28227
rtoes -9.11763
lfemur -15.9103 -10.3779 -18.0508
ltibia 18.5577
lfoot -14.6893 13.1514
ltoes -29.1822
1489
root 10.0827 15.7398 5.87477 20.25 -14.3592 -5.36244
lowerback -23.6218 0.943409 2.78893
upperback -7.78124 0.388638 1.68904
thorax 4.61111 0.150057 0.332652
lowerneck -23.685 5.10441 6.86685
upperneck 26.0673 4.65131 -0.070846
head 12.8285 2.74007 -0.336743
rclavicle 2.55003e-014 2.09221e-014
rhumerus -32.8751 6.87146 -85.7075
rradius 43.754
rwrist -5.59955
rhand -14.0962 -15.4302
rfingers 7.12502
rthumb 12.0364 -45.064
lclavicle 2.55003e-014 2.09221e-014
lhumerus -32.7294 -20.3841 90.245
lradius 47.2601
lwrist 43.9398
lhand -30.9433 -10.6581
lfingers 7.12502
lthumb -4.22834 19.2797
rfemur -38.833 16.8409 20.5138
rtibia 36.3323
rfoot -13.0717 -3.25814
rtoes -9.09227
lfemur -15.8934 -10.4007 -18.0405
ltibia 18.553
lfoot -14.6773 13.2001
ltoes -29.2212
1490
root 10.0791 15.7396 5.87703 20.256 -14.3751 -5.36376
lowerback -23.6483 0.93483 2.77716
upperback -7.7882 0.378127 1.70136
thorax 4.61645 0.14497 0.350089
lowerneck -23.6695 5.11314 6.86745
upperneck 26.0416 4.66451 -0.0694207
head 12.8155 2.74593 -0.334501
rclavicle -2.45996e-015 1.11816e-014
rhumerus -32.9195 7.02307 -85.8062
rradius 43.9824
rwrist -5.65836
rhand -14.0714 -15.4122
rfingers 7.12502
rthumb 12.0602 -45.0447
lclavicle -2.45996e-015 1.11816e-014
lhumerus -32.7461 -20.357 90.2246
lradius 47.5092
lwrist 43.9744
lhand -30.9483 -10.6741
lfingers 7.12502
lthumb -4.2332 19.2636
rfemur -38.8294 16.8348 20.5319
rtibia 36.3362
rfoot -13.0876 -3.23261
rtoes -9.06111
lfemur -15.8792 -10.4221 -18.0314
ltibia 18.5464
lfoot -14.6646 13.2458
ltoes -29.2675
1491
root 10.0755 15.7394 5.87926 20.2634 -14.3899 -5.36372
lowerback -23.671 0.922037 2.76022
upperback -7.80441 0.363297 1.71887
thorax 4.60975 0.13765 0.374794
lowerneck -23.6242 5.11652 6.85624
upperneck 26.0158 4.67711 -0.0674153
head 12.7961 2.75057 -0.330912
rclavicle -1.90088e-014 -3.19546e-014
rhumerus -32.9799 7.17797 -85.8985
rradius 44.1981
rwrist -5.71995
rhand -14.0472 -15.4048
rfingers 7.12502
rthumb 12.0836 -45.0359
lclavicle -1.90088e-014 -3.19546e-014
lhumerus -32.7819 -20.3216 90.2147
lradius 47.7478
lwrist 44.0089
lhand -30.9523 -10.724
lfingers 7.12502
lthumb -4.23712 19.2136
rfemur -38.8276 16.8225 20.5505
rtibia 36.3408
rfoot -13.1042 -3.20184
rtoes -9.0242
lfemur -15.8676 -10.4434 -18.0227
ltibia 18.5392
lfoot -14.6506 13.2914
ltoes -29.3188
1492
root 10.0717 15.7393 5.88143 20.2725 -14.4011 -5.36399
lowerback -23.6925 0.904166 2.73858
upperback -7.82675 0.342621 1.74392
thorax 4.59559 0.127446 0.408703
lowerneck -23.5553 5.11504 6.82973
upperneck 25.9899 4.69053 -0.0647289
head 12.7714 2.75425 -0.324983
rclavicle 6.83322e-015 -1.48095e-014
rhumerus -33.0504 7.33937 -85.9813
rradius 44.401
rwrist -5.78493
rhand -14.0221 -15.4212
rfingers 7.12502
rthumb 12.1078 -45.0509
lclavicle 6.83322e-015 -1.48095e-014
lhumerus -32.8316 -20.2732 90.2152
lradius 47.976
lwrist 44.0411
lhand -30.9672 -10.8362
lfingers 7.12502
lthumb -4.25148 19.1011
rfemur -38.8269 16.8054 20.571
rtibia 36.345
rfoot -13.1212 -3.16951
rtoes -8.98961
lfemur -15.8592 -10.4666 -18.0119
ltibia 18.5327
lfoot -14.6361 13.3365
ltoes -29.3748
1493
root 10.0679 15.7392 5.88368 20.2817 -14.41 -5.36564
lowerback -23.7159 0.885564 2.71696
upperback -7.84944 0.320834 1.77041
thorax 4.58201 0.116723 0.443865
lowerneck -23.4827 5.11246 6.80349
upperneck 25.9682 4.70369 -0.0656447
head 12.7478 2.75742 -0.320581
rclavicle 2.72304e-014 -6.63444e-015
rhumerus -33.1225 7.49312 -86.0585
rradius 44.5893
rwrist -5.85002
rhand -13.9941 -15.4507
rfingers 7.12502
rthumb 12.1348 -45.0788
lclavicle 2.72304e-014 -6.63444e-015
lhumerus -32.8864 -20.2221 90.218
lradius 48.1956
lwrist 44.0669
lhand -30.9743 -10.9708
lfingers 7.12502
lthumb -4.25829 18.9664
rfemur -38.8247 16.7834 20.5949
rtibia 36.3475
rfoot -13.1398 -3.1334
rtoes -8.95039
lfemur -15.852 -10.4891 -17.999
ltibia 18.5288
lfoot -14.6255 13.3785
ltoes -29.4189
1494
root 10.0641 15.739 5.88609 20.2899 -14.4193 -5.36908
lowerback -23.742 0.86688 2.69506
upperback -7.87171 0.298704 1.79953
thorax 4.57027 0.105884 0.481983
lowerneck -23.4031 5.10866 6.77674
upperneck 25.9483 4.71748 -0.0717254
head 12.7236 2.76014 -0.31812
rclavicle -4.29251e-015 5.26779e-015
rhumerus -33.1965 7.64321 -86.1287
rradius 44.763
rwrist -5.91737
rhand -13.9715 -15.4937
rfingers 7.12502
rthumb 12.1566 -45.1205
lclavicle -4.29251e-015 5.26779e-015
lhumerus -32.9445 -20.1673 90.225
lradius 48.4032
lwrist 44.0819
lhand -30.967 -11.0558
lfingers 7.12502
lthumb -4.25131 18.8815
rfemur -38.8183 16.7601 20.6219
rtibia 36.3479
rfoot -13.1603 -3.09628
rtoes -8.92554
lfemur -15.8439 -10.5136 -17.9845
ltibia 18.5289
lfoot -14.6172 13.4234
ltoes -29.4633
1495
root 10.0602 15.7388 5.88859 20.2967 -14.4288 -5.37486
lowerback -23.7749 0.852566 2.6793
upperback -7.88574 0.280737 1.82379
thorax 4.57102 0.0971823 0.512596
lowerneck -23.3377 5.10377 6.75843
upperneck 25.9322 4.72666 -0.0827571
head 12.7041 2.76097 -0.319404
rclavicle 1.07468e-015 -6.03808e-015
rhumerus -33.2595 7.77491 -86.1957
rradius 44.9213
rwrist -5.98339
rhand -13.9539 -15.5367
rfingers 7.12502
rthumb 12.1735 -45.1624
lclavicle 1.07468e-015 -6.03808e-015
lhumerus -32.9927 -20.1218 90.2252
lradius 48.6007
lwrist 44.0845
lhand -30.9511 -11.1354
lfingers 7.12502
lthumb -4.23594 18.8022
rfemur -38.8081 16.735 20.6526
rtibia 36.3462
rfoot -13.1816 -3.05504
rtoes -8.89075
lfemur -15.8346 -10.5385 -17.9679
ltibia 18.5326
lfoot -14.6131 13.4681
ltoes -29.4986
1496
root 10.0563 15.7385 5.89124 20.3 -14.4396 -5.38242
lowerback -23.8117 0.843317 2.67081
upperback -7.89137 0.267823 1.84124
thorax 4.58298 0.0910145 0.533165
lowerneck -23.2928 5.0995 6.75191
upperneck 25.924 4.73182 -0.0983587
head 12.6922 2.76055 -0.324528
rclavicle 2.09066e-014 1.963e-014
rhumerus -33.3088 7.8887 -86.2617
rradius 45.06
rwrist -6.04722
rhand -13.9504 -15.5679
rfingers 7.12502
rthumb 12.1769 -45.1935
lclavicle 2.09066e-014 1.963e-014
lhumerus -33.0293 -20.0863 90.216
lradius 48.7857
lwrist 44.0704
lhand -30.9091 -11.0631
lfingers 7.12502
lthumb -4.19538 18.8754
rfemur -38.7924 16.7236 20.6817
rtibia 36.3434
rfoot -13.2005 -3.02692
rtoes -8.86849
lfemur -15.8209 -10.5641 -17.9509
ltibia 18.5382
lfoot -14.6115 13.5146
ltoes -29.5272
1497
root 10.0525 15.7382 5.89384 20.3013 -14.4516 -5.38949
lowerback -23.8506 0.840504 2.66903
upperback -7.89018 0.262253 1.84789
thorax 4.60353 0.0884387 0.540277
lowerneck -23.2695 5.0951 6.75717
upperneck 25.9246 4.73011 -0.113134
head 12.6883 2.75837 -0.331894
rclavicle -4.60947e-014 -2.62147e-014
rhumerus -33.3472 7.9794 -86.3291
rradius 45.182
rwrist -6.10357
rhand -13.958 -15.588
rfingers 7.12502
rthumb 12.1696 -45.2141
lclavicle -4.60947e-014 -2.62147e-014
lhumerus -33.0573 -20.0727 90.1962
lradius 48.9602
lwrist 44.0453
lhand -30.8645 -11.0001
lfingers 7.12502
lthumb -4.15229 18.9392
rfemur -38.7741 16.7071 20.7125
rtibia 36.3405
rfoot -13.2214 -2.99257
rtoes -8.84195
lfemur -15.8047 -10.5889 -17.9353
ltibia 18.5442
lfoot -14.6102 13.5618
ltoes -29.5522
1498
root 10.0485 15.738 5.89634 20.3023 -14.4621 -5.39648
lowerback -23.8886 0.843552 2.67407
upperback -7.88399 0.263447 1.84339
thorax 4.62926 0.0891318 0.533303
lowerneck -23.2743 5.09255 6.77555
upperneck 25.9362 4.7223 -0.123839
head 12.6946 2.75537 -0.340163
rclavicle -3.6154e-015 1.44492e-014
rhumerus -33.374 8.04356 -86.3978
rradius 45.2872
rwrist -6.14995
rhand -13.9621 -15.594
rfingers 7.12502
rthumb 12.1656 -45.2202
lclavicle -3.6154e-015 1.44492e-014
lhumerus -33.0769 -20.0801 90.165
lradius 49.1245
lwrist 44.0104
lhand -30.8236 -10.9528
lfingers 7.12502
lthumb -4.1128 18.9872
rfemur -38.7555 16.6846 20.7458
rtibia 36.3387
rfoot -13.2444 -2.95262
rtoes -8.81061
lfemur -15.787 -10.6148 -17.9193
ltibia 18.5478
lfoot -14.6075 13.6088
ltoes -29.5775
